/* XPM */
static char *render_sunflowShaderNode[] = {
/* columns rows colors chars-per-pixel */
"32 32 256 2",
"   c #1E2737",
".  c #1C253A",
"X  c #1E283B",
"o  c #20273A",
"O  c #252C35",
"+  c #232A39",
"@  c #2A2D34",
"#  c #2B2E38",
"$  c #2D3136",
"%  c #2C3138",
"&  c #343434",
"*  c #363933",
"=  c #35383C",
"-  c #3B3C31",
";  c #3D3D3D",
":  c #353639",
">  c #132040",
",  c #2E3441",
"<  c #363A40",
"1  c #393D43",
"2  c #313847",
"3  c #3E4037",
"4  c #3D4346",
"5  c #42422E",
"6  c #4A462C",
"7  c #49482D",
"8  c #414230",
"9  c #4B4D3C",
"0  c #524D29",
"q  c #504C3E",
"w  c #565229",
"e  c #5C5526",
"r  c #5E5926",
"t  c #5A5528",
"y  c #5F5B3E",
"u  c #635A25",
"i  c #685F21",
"p  c #615825",
"a  c #72651E",
"s  c #766A1F",
"d  c #786519",
"f  c #7E6816",
"g  c #7B6D1C",
"h  c #7E6716",
"j  c #7E731C",
"k  c #686128",
"l  c #746B22",
"z  c #786E22",
"x  c #716925",
"c  c #726D3D",
"v  c #7F782F",
"b  c #7C733C",
"n  c #434444",
"m  c #4A4B46",
"M  c #434A55",
"N  c #494F5A",
"B  c #4B515B",
"V  c #4B5055",
"C  c #56594C",
"Z  c #58594B",
"A  c #585746",
"S  c #525654",
"D  c #54595A",
"F  c #4F5661",
"G  c #535962",
"H  c #555B63",
"J  c #5F6048",
"K  c #5C605C",
"L  c #5C6266",
"P  c #5D6369",
"I  c #605C44",
"U  c #625E4B",
"Y  c #6A6545",
"T  c #67674B",
"R  c #6A6750",
"E  c #6E6C50",
"W  c #726F4C",
"Q  c #736F58",
"!  c #787657",
"~  c #616665",
"^  c #666A6E",
"/  c #616770",
"(  c #646972",
")  c #6C7174",
"_  c #6D7279",
"`  c #71757B",
"'  c #77786A",
"]  c #787C84",
"[  c #7E817D",
"{  c #836B14",
"}  c #84751A",
"|  c #8B7C1A",
" . c #8D7513",
".. c #997C0E",
"X. c #817A59",
"o. c #827F69",
"O. c #9D800C",
"+. c #968416",
"@. c #918219",
"#. c #988616",
"$. c #9D8A14",
"%. c #8F812D",
"&. c #9F8C32",
"*. c #A88F0E",
"=. c #A28E13",
"-. c #AC950E",
";. c #AF980E",
":. c #A59113",
">. c #AC9610",
",. c #A8961D",
"<. c #B19309",
"1. c #B49B0B",
"2. c #B99D09",
"3. c #B29E11",
"4. c #B89F15",
"5. c #A8942F",
"6. c #A59732",
"7. c #BBA20C",
"8. c #BFA90C",
"9. c #B9A312",
"0. c #BAA73B",
"q. c #B6A427",
"w. c #89824E",
"e. c #8C8651",
"r. c #9B8B45",
"t. c #918C53",
"y. c #9D954D",
"u. c #959065",
"i. c #8F8F79",
"p. c #AB944A",
"a. c #AD9745",
"s. c #A6985A",
"d. c #B19F40",
"f. c #B59D4B",
"g. c #A19661",
"h. c #A59C67",
"j. c #ACA148",
"k. c #AEA55C",
"l. c #B3A54C",
"z. c #BDAF44",
"x. c #B8A857",
"c. c #ADA566",
"v. c #ABA67B",
"b. c #B5AB64",
"n. c #B8B279",
"m. c #C1A609",
"M. c #C4AA0A",
"N. c #CBAE05",
"B. c #C4A808",
"V. c #C0A915",
"C. c #CEB307",
"Z. c #CBB10B",
"A. c #CEB31F",
"S. c #D1B504",
"D. c #D4B804",
"F. c #D8B701",
"G. c #DABB01",
"H. c #DBBF0A",
"J. c #D8BC1A",
"K. c #CAAF21",
"L. c #C0AF30",
"P. c #C7B331",
"I. c #D7BF29",
"U. c #D3BE3E",
"Y. c #C5B355",
"T. c #D2BF52",
"R. c #C7B749",
"E. c #C2B661",
"W. c #C4B863",
"Q. c #C5BC74",
"!. c #C7BE78",
"~. c #DEC004",
"^. c #DAC21E",
"/. c #DCC422",
"(. c #DFCA3F",
"). c #E3C401",
"_. c #E2C608",
"`. c #E6C800",
"'. c #E6C90D",
"]. c #E8C700",
"[. c #EBCC00",
"{. c #EACD0A",
"}. c #E4CA1D",
"|. c #E4C915",
" X c #EFD000",
".X c #EED00F",
"XX c #EDD21C",
"oX c #F0D000",
"OX c #E4CC21",
"+X c #E7CF29",
"@X c #E8CF20",
"#X c #E8CF2A",
"$X c #E2CB38",
"%X c #EAD122",
"&X c #EAD22B",
"*X c #EBD43C",
"=X c #EAD337",
"-X c #F0D72D",
";X c #F0D83C",
":X c #D9C545",
">X c #D7C55A",
",X c #CCC275",
"<X c #D1C365",
"1X c #D2C56D",
"2X c #DCCA66",
"3X c #D7CC78",
"4X c #D6CA73",
"5X c #DFD06D",
"6X c #E2CD47",
"7X c #EBD442",
"8X c #EAD548",
"9X c #E9D655",
"0X c #ECD95C",
"qX c #E9D55A",
"wX c #F3DC46",
"eX c #F3DE57",
"rX c #E2D36B",
"tX c #E8D762",
"yX c #E8D768",
"uX c #EAD864",
"iX c #EADA6C",
"pX c #E2D265",
"aX c #E7D871",
"sX c #ECDC73",
"dX c #EADB7A",
"fX c #E4D67C",
"gX c #F1DE62",
"hX c #EEE07E",
"jX c #F3E064",
"kX c #F1E37D",
"lX c #808383",
"zX c #81848A",
"xX c #868882",
"cX c #85898D",
"vX c #898C8D",
"bX c #8D8E87",
"nX c #828690",
"mX c #858991",
"MX c #898D93",
"NX c #8E9299",
"BX c #9D9C84",
"VX c #909082",
"CX c #919495",
"ZX c #96999C",
"AX c #94979E",
"SX c #9FA097",
"DX c #9EA1A3",
"FX c #A09F85",
"GX c #A8A688",
"HX c #A6A79F",
"JX c #AAA99D",
"KX c #B0AC80",
"LX c #C9C185",
"PX c #D0C680",
"IX c #E1D681",
"UX c #F4E680",
/* pixels */
"; ; ; ; ; ; ; ; ; ; = < m U Y R R U m = = ; ; ; ; ; ; ; ; ; ; ; ",
"& & : : : & & & # n ! d.R.:X8X9X9X>XY.k.Y : $ & & & & & & & * * ",
"& & & * & & @ ; w.U.&X-XwX;X*X8X7X0XiXjXiXQ.b * & & & & & & & & ",
"& & * & & + A R.%X@X#X*X7X7X8X8X9XuX0X0XyXsXdXb.9 @ & & & & & & ",
"& & : : @ E OX}.}.&X-X6XR.k.g.g.v.b.<XrXhXsXdXUXQ.I @ & & & & & ",
"& & & # Y }.XX}.%X$Xj.Q ~ / ) ( ] lXmXBX!.aXdXdXkX2Xy @ & & & & ",
"& & @ A OX'.}.XXP.Q H ~ ( ) ` i.lXzXvXmXCXHXIXdXsXkX4Xm & & & & ",
"& & ; 0.'.}.XXL.S H L ' u.) ` xXv.zXvXCXZXZXHXIXdXdXkXc.& & & & ",
"& # b {.'.%XL.S B L ~ P c.c._ lX,XBXMXZXGXDXAXSX4XdXyXsXW @ & & ",
"& ; A._.|.^.T B K L L / o.qXh.] 5XKXcXSXLXAXZXNXFXaXyXgXW.& & & ",
"@ c {.'.XX5.M D e.x.s.' ( <XrXVX5Xn.nX,X,XNXCXvXcX!.gX0XuXI @ & ",
"% ,.{.|.^.I N S D ! :X6Xs.W.eX1X0X2Xn.hXGXmXbXFXzXi.gXuXgXt.$ & ",
"3 V.{.{.q.M B B G B ! >XwX>XY.Y.<X1XuX5XvXbX,XFXzX[ 2X7X%X0.: & ",
"0 G.[.{.#.2 C ' y.l.l.T.:Xf.p.s.s.x.yX,Xn.uXn._ ^ N 5.[.].I.; & ",
"u ].].[.i : k | 9./.+X+Xa.r.p.p.p.p.x.=X-X6.4 = @   j oX].|.q & ",
"u ].[.].p + : O   & :.G...f  .{ { f O.~. .  . O - O x oX]._.A @ ",
"u [.[.`.r # * O 3 -.[.G...h { h { { O.~.M.9.:.$.u O z [.[._.Z $ ",
"u ).`.[.s + # 7 S.G.8.m.<.h h { d f 7.C.C.Z.$.7 % + @.[.`.~.9 $ ",
"6 S.[.[.+.  3 *.} 3 # :.).<.{ { { 1.).B.- O X $ & % -.[.{.A.= & ",
"& 9.oX[.M.$ 7 5 + + 6 ).m.2.N.m.N.2.2.[.7.t $ & $ - D.[.[.6.: & ",
"# | [.[.[.r + % & O z G.* $.].+.[.1.% k +.=.g - + s [.`.oX} , = ",
"# 0 ).`.[.1.% & & O #.x . | S.& | `.7 . O $ * $ & M.[.[.J.q # : ",
": & -.[.`.[.s X * $ a * + r Z.* + $.:.# & & $   | [.`.oX&.# & & ",
": @ w ).[.[.~.p + & - & * * $.- # % s r % $ + a `.[.[.H.m @ & & ",
"& : @ | [.`.[.).u + # & * # w - $ : # - # o } `.[.`.[.s # & & * ",
"& & & $ 1.[.].[.`.@.- + # # % $ & # + + - =.].`.`.[.$.$ & & & $ ",
"& & & & - 1.[.`.[.oXC.@.t 5 $ % & 5 p #.G.[.[.`.[.-.& & & & & & ",
"& & & & # - :.[.[.`.[.oX).S.M.8.M.S.].[.[.`.[.[.#.* % & & & & & ",
"& & & & : # & g C.oX[.`.[.[.[.oX[.[.[.`.[.[.Z.x @ : & & & & & & ",
"& & & : & & & % 5 } C.].[.oXoX[.oXoX[.).m.} - # & & & & & & & & ",
"& & * : * & & & $ # * r } :.3.7.3.$.} t & # & & & & & & & - & & ",
"; ; ; ; ; ; ; 1 ; ; ; 1 , , 1 3 1 , , = ; ; ; ; ; ; ; ; ; ; ; ; "
};
