/* XPM */
static char * image_name[]={
"93 35 135 2",
"  	c #525252",
". 	c #3D3D3D",
"X 	c #454545",
"o 	c #424242",
"O 	c #2F2F64",
"+ 	c #363636",
"@ 	c #383838",
"# 	c #2E2E2E",
"$ 	c #212121",
"% 	c #292929",
"& 	c #3B3B3B",
"* 	c #55562F",
"= 	c #303030",
"- 	c #1C1C1C",
"; 	c #242424",
": 	c #636363",
"> 	c #B8860B",
", 	c #F3E64B",
"< 	c #D1C166",
"1 	c #BDB76B",
"2 	c #1A1A1A",
"3 	c #2B2B2B",
"4 	c #CD853F",
"5 	c #FFFF00",
"6 	c #D7EB31",
"7 	c #CED85A",
"8 	c #D7F46E",
"9 	c #262626",
"0 	c #474747",
"q 	c #F2DE0D",
"w 	c #CDCD1D",
"e 	c #B3B37E",
"r 	c #696969",
"t 	c #707070",
"y 	c #6A6A8D",
"u 	c #8C8C8C",
"i 	c #BC8F8F",
"p 	c #EFDF84",
"a 	c #384B66",
"s 	c #616161",
"d 	c #7E88AB",
"f 	c #A3A3A3",
"g 	c #333333",
"h 	c #595959",
"j 	c #8F8F8F",
"k 	c #A6A6A6",
"l 	c #969696",
"z 	c #999999",
"x 	c #4F4F4F",
"c 	c #1F1F1F",
"v 	c #545454",
"b 	c #E9967A",
"n 	c #778899",
"m 	c #DAAA00",
"M 	c #666666",
"N 	c #F4A460",
"B 	c #ABABAB",
"V 	c #DEB887",
"C 	c #787878",
"Z 	c #96522D",
"A 	c #B7644D",
"S 	c #5E5E5E",
"D 	c #8B4513",
"F 	c #141414",
"G 	c #121212",
"H 	c #0F0F0F",
"J 	c #575757",
"K 	c #6B6B6B",
"L 	c #5C5C5C",
"P 	c #4A4A4A",
"I 	c #737373",
"U 	c #4D4D4D",
"Y 	c #232375",
"T 	c #E8E8E8",
"R 	c #FFFFFF",
"E 	c #B3B3B3",
"W 	c #878787",
"Q 	c #919191",
"! 	c #9C9C9C",
"~ 	c #7A7A7A",
"^ 	c #9E9E9E",
"/ 	c #858585",
"( 	c #B5B5B5",
") 	c #708090",
"_ 	c #757575",
"` 	c #8A8A8A",
"' 	c #BFBFBF",
"] 	c #EDEDED",
"[ 	c #DEDEDE",
"{ 	c #CFCFCF",
"} 	c #7D7D7D",
"| 	c #6E6E6E",
" .	c #080808",
"..	c #D4D4D4",
"X.	c #000001",
"o.	c #171717",
"O.	c #F5F5F5",
"+.	c #B0B0B0",
"@.	c #2F4F4F",
"#.	c #0A0A0A",
"$.	c #00562D",
"%.	c #ADADAD",
"&.	c #000000",
"*.	c #7E7E7E",
"=.	c #B8B8B8",
"-.	c #D6D6D6",
";.	c #050505",
":.	c #0D0D0D",
">.	c #949494",
",.	c #E5E5E5",
"<.	c #030303",
"1.	c #FCFCFC",
"2.	c #DBDBDB",
"3.	c #BABABA",
"4.	c #EBEBEB",
"5.	c #D9D9D9",
"6.	c #F0F0F0",
"7.	c #828282",
"8.	c #B6E2CE",
"9.	c #CCCCCC",
"0.	c #F7F7F7",
"q.	c #C7C7C7",
"w.	c #C9C9C9",
"e.	c #F2F2F2",
"r.	c #C2C2C2",
"t.	c #FAFAFA",
"y.	c #A8A8A8",
"u.	c #A1A1A1",
"i.	c #BDBDBD",
"p.	c #DCDCDC",
"a.	c #E3E3E3",
"s.	c #404040",
"d.	c #C4C4C4",
"f.	c #BDBFC0",
"g.	c #6B3939",
"  . X X X X X o O + + O X X X X X X X X X X X X X X X X X X X X X X X X X X X X X X X X X X X X X X X X X X X X X X X X X X X X X X X X X X X X X X X X X X X X X X X X X X X X X X X .   ",
"+ + + + @ # $ % & * X = - $ + + + + + + + + + + + + + + + + + + + + + + + + + + + + + + + + + + + + + + + + + + + + + + + + + + + + + + + + + + + + + + + + + + + + + + + + + + + + + + + ",
"X + + + ; O : > , , , < 1 * 2 3 @ + + + + + + + + + + + + + + + + + + + + + + + + + + + + + + + + + + + + + + + + + + + + + + + + + + + + + + + + + + + + + + + + + + + + + + + + + + + X ",
"X + + $ X 4 5 5 6 7 7 , 8 8 1 $ 9 @ + + + + + + + + + + + + + + + + + + + + + + + + + + + + + + + + + + + + + + + + + + + + + + + + + + + + + + + + + + + + + + + + + + + + + + + + + + X ",
"X + ; 0 q 5 w e r t y u i 8 p 1 $ 3 + + + + + + + + + + + + + + + + + + + + + + + + + + + + + + + + + + + + + + + + + + + + + + + + + + + + + + + + + + + + + + + + + + + + + + + + + + X ",
"X % O w 5 > a s t y u y d f 8 p e 2 g + + + + + + + + + + + + + + + + + + + + + + + + + + + + + + + + + + + + + + + + + + + + + + + + + + + + + + + + + + + + + + + + + + + + + + + + + X ",
"X O > 5 4 a h s 1 e e j k l z 8 8 x c + + + + + + + + + + + + + + + + + + + + + + + + + + + + + + + + + + + + + + + + + + + + + + + + + + + + + + + + + + + + + + + + + + + + + + + + + X ",
"O O q q v O 1 1 1 , < b i n n e 8 1 - g + + + + + + + + + + + + + + + + + + + + + + + + + + + + + + + + + + + + + + + + + + + + + + + + + + + + + + + + + + + + + + + + + + + + + + + + X ",
"O * 5 m O M e , 7 N < 8 B V u C 6 w + # + + + + + + + + + + + + + + + + + + + + + + + + + + + + + + + + + + + + + + + + + + + + + + + + + + + + + + + + + + + + + + + + + + + + + + + + X ",
"O Z 5 Z O * > w > A 1 N 6 S O = m q * 3 + + + + + + + + + + + + + + + + + + + + + + + + + + + + + + + + + + + + + + + + + + g + g g + + + + + g + g + + + g + + + g g + g g + + + + + + X ",
"O Z 5 Z 2 $ > q * * * > m D * 9 m q * % @ + 3 ; 9 g + + + + + + + + + + + + + + + + + + + + + + + + + + + + + + + + + + @ 3 % 9 % # 9 = 9 3 ; 3 # % % + # 3 # % ; = 3 9 3 # 9 # % + + + X ",
"O * 5 > O > > > m * * q m * g = q q & = # F = X . 2 ; & + + + + + + + + + + + + + + + + + + @ g F G F F F F G $ % H % & 3 J t h M M J # r K v r L K s = P M P   I U M t : r v g J = + + X ",
"O * q m g g Y > m m m > > * Y * 5 m O % c j T R R E g c @ + + + + + + + + + + + + + + + + + # & W u W W W W Q M   ! J 9 ; ~ ! ^ u   Q / Q X ( y J f Q # v ) _ j C M K ~ W J ^ l ` c + + X ",
"o 9 m 5 * Y * * * > > * 9 * $ m 5 * $ F ^ R R ' ] R [ 9 3 g + + + + + + g + + + + + g + + + c P R R R R R R R { ) R Q G # h L I } J # r / L ) I L h S + = C | U & } J P I S C Q U # g + X ",
"X 9 * 5 q * Y % * * ; * % Y > 5 m O - . R ] P  .c ..R j X.o.% & + + & c G 3 & + $ G o.G - + ; 0 R O.B +.E E E t ) R / o.+ g # 9 - & @.& = ; ; P . #.o.@ & $.g 9 9 9 g = & U ; #.$ . + + X ",
"X + O Z 5 q * % O ; $ Y g > 5 q * 9 2 M R %.&.+ - . C P M +.s $ + g 9 *.k v ; F o l =.f v o.- P R -.;.:.F F o.&.j R / o.+ @ ; o._ ..R R ..C o.G 0 E >.3 = = $ v +./ ; g = - S %.| $ + + X ",
"X + = ; Z 5 5 m > * Z > q 5 q * $ @ 2 J R ,.+ <.c $ o.<.E R u H + g G { R I &.I 1.R R R R l <.o R 2.c 9 # # # H u R / o.+ 3 2 =.R R ] ] R R 3.<.P R 4.; # + F _ R ..F g + H u R k :.+ + X ",
"X + + = $ * m q 5 5 5 5 q > + ; + + = - 3.R R z J $ 2 o.! R ) F + g o.3.R x . R R f J Q R R M % R 5.F - ; ; 9  .j R / o.+ G ! R 6.s % % S ] R 7.% R ..9 # + 2 K R 8.2 g + F ) R l G + + X ",
"X + + + + ; % * * > > * * $ 3 @ + + @ 9 ; >.R R R 9.U &.z R ) F + g o.3.R 0 f R z &.H &.C R 9.+ 0.0.q.w.w.w.{ 7.) R / o.; . R R U &.3 3 &.U R 0.J R -.9 # + 2 K R 8.2 g + F ) R l G + + X ",
"X + + + + + g % 9 9 9 9 3 + + + + + + @ 3 G g C 5.R 1.3 ~ R 7.F + g o.3.R v 3.R 0 o.& 9 ; e.T P ] R R R R R R w.~ R 7.o.o.| R r.#.g + + g H 8.R 7.O.-.9 # + 2 K R 8.2 g + F ) R l G + + X ",
"X + + + + + + + + g + + + + + + + + @ - G # % :.G z R ^ | R *.F + g o.=.R v ( R   c + 3 # ] 4.P t.,.L s M M K @ u R } G o.~ R y.:.@ + + @ H u.R ` 6...; # + 2 r R i.o.g + F } R l G + + X ",
"X + + + + + + + + + + + + + + + + g # 7.^ & % . o.% R q.) R C :.& + :.E R h E R v - + % g 6.T P R -. .H o.o.o.&.*.R E  .o.S R 5.G 9 @ @ 9 o.[ R _ 0.p.2 = & F S R 3.#.+ & :._ R ! G + + X ",
"X + + + + + + + + + + + + + + + + g F ..R u &.- &.x R ( : R r. .F #.c T R 0 E R v - + % g ] 4.U R p.% = + + + ; X R R S &.G 4.R j <.H H <.Q R 2.# t.1.0 &.o.&.k R ] + <.F ;.3.R j G + + X ",
"X + + + + + + + + + + + + + + + + + o.M R R I @.M T R r F 0.R E . 0 9.R ..#.q.R v - + % g ] ] U R p.9 # + + + + G Q R R j # J R R ( M M =.R R L &.B R 4.s . ! R R R a.L s.%.R 1.& ; + + X ",
"X + + + + + + + + + + + + + + + + + g F l R R R R R ! 2 G L 1.R R R R [ = ;.T R h 2 + % g R R J R 6.9 # + + + + # o.>.R R 6.&.M O.R R R R O.| F 9 9 d.R R R R R I f.R R R R O.L F @ + + X ",
"X + + + + + + + + + + + + + + + + + @ # o.: +.r.%.S o.3 & o.X f -.{ Q # o.# ^ 8.P ; + # g i.i.P q.+.3 = + + + + @ 3 F x f u.3 H @ u =.=.u @ G g & ; - C i.9.f X ;.; *.' w.^ O o.+ + + + X ",
"X + + + + + + + + + + + + + + + + + + = 3 G G 2 F o.g @ + g o.:.% ; G 9 @ + ; c g @ # = + ; ; = ; 9 + + g + g + + g # o.G - @ @ $ G o.F H ; @ + g & % #.F c G c & 3 G 2 c G $ @ + + + + X ",
"X + + + + + + + + + + + + + + + + g + * * * g 3 = g = g # * * * $ # g = g = 3 # = g * * # # % g # % = g g # = = g * * * # # = # g = = g + g = # = g * * * 3 = = g = + = 3 = g = = + + + X ",
"X + + + + + + + + + + + + + + + + g g * Z * Z * @ * * = * * * * * * * * * * * * + g.Z * * * * @ + * * * * * * * 3 * * * * * * * Z * * Z * * * * * # * * * * * * * * * * * * * * * = + + X ",
"X + + + + + + + + + + + + + + + + + = + * * * * > * Z g.* * Y * > = * > * Z * * * = * * * # > * @ > Z * + > * Z = * * * Z * * Z * > * + > * * > * 3 * * + * * > @ * > Z * Z Z * * # + + X ",
"X + + + + + + + + + + + + + + + + + g g.* * * @ * * * + + * * * * * * * * * * @ * = * * * * * * * * * * * * * * = * g * * * * * = * * * * * * * * # * * * * g Z * * Z * g * * * * = + + X ",
"X + + + + + + + + + + + + + + + + + + g g g + g # * g.g = + * g * * + # * @ = + g g * + g * # @ * = = * * = * + g g g g g * @ = + # g.* # @ * = g g + * g.g = g Z Z + # + = @ * g g + + X ",
"X + + + + + + + + + + + + + + + + + + + g g + + + = g + + g # + g # g + # g + g + + = g g # + g = g + = g + = g + g + + g = g + + + g = + g = + + + g g g g + g @ g = + + + g = + + + + X ",
"+ + + + + + + + + + + + + + + + + + + + + + + + + + + + + + + + g + + + + + + + + + + + + + + + + + + + + + + + + + + + + + + + + + + + + + + + + + + + + + + + g g + + + + + + + + + + + ",
"  . X X X X X X X X X X X X X X X X X X X X X X X X X X X X X X X X X X X X X X X X X X X X X X X X X X X X X X X X X X X X X X X X X X X X X X X X X X X X X X X X X X X X X X X X X .   "
};
